{"glyphs":{"0":{"ha":785,"x_min":51,"x_max":732,"o":"m 392 -17 q 140 108 228 -17 q 51 465 51 232 q 140 819 51 693 q 392 946 228 946 q 645 819 558 946 q 732 465 732 693 q 645 108 732 232 q 392 -17 558 -17 m 392 799 q 250 706 294 799 q 204 468 206 614 q 248 219 204 304 q 392 136 292 135 q 538 224 497 139 q 581 468 578 308 q 534 708 578 624 q 392 799 490 793 z "},"1":{"ha":438,"x_min":101,"x_max":336,"o":"m 336 0 l 188 0 l 188 747 l 101 747 l 101 867 q 221 931 183 871 l 336 931 l 336 0 z "},"2":{"ha":815,"x_min":92,"x_max":725,"o":"m 725 0 l 92 0 q 425 515 101 332 q 578 672 583 599 q 533 760 578 725 q 415 797 488 794 q 239 665 285 788 l 92 708 q 212 877 128 808 q 408 946 296 946 q 633 865 540 946 q 725 678 725 785 q 511 393 721 501 q 274 150 313 278 l 725 150 l 725 0 z "},"3":{"ha":771,"x_min":60,"x_max":703,"o":"m 703 307 q 613 74 703 164 q 392 -18 524 -17 q 188 40 271 -17 q 60 211 104 97 l 211 260 q 389 133 271 132 q 509 180 463 133 q 556 297 556 226 q 429 435 554 419 l 386 435 l 386 581 l 429 581 q 519 672 519 581 q 481 761 519 726 q 386 796 442 796 q 239 699 293 796 l 100 742 q 203 883 125 822 q 382 946 282 944 q 583 863 500 946 q 667 663 667 781 q 603 511 668 564 q 703 307 700 443 z "},"4":{"ha":785,"x_min":54,"x_max":731,"o":"m 731 232 l 642 232 l 642 0 l 494 0 l 494 232 l 54 232 l 54 367 l 494 931 l 642 931 l 642 365 l 731 365 l 731 232 m 494 365 l 494 699 l 231 365 l 494 365 z "},"5":{"ha":771,"x_min":69,"x_max":700,"o":"m 700 347 q 587 96 700 208 q 297 -17 474 -17 q 69 36 174 -17 l 154 169 q 299 136 219 136 q 478 203 401 133 q 556 350 556 272 q 510 463 557 417 q 393 508 464 508 q 232 426 303 510 l 100 476 l 115 931 l 650 931 l 650 783 l 258 783 l 253 624 q 392 660 321 660 q 612 569 524 657 q 700 347 700 482 z "},"6":{"ha":771,"x_min":69,"x_max":703,"o":"m 703 268 q 612 65 703 147 q 386 -17 521 -17 q 160 69 251 -17 q 69 281 69 156 q 168 656 69 474 q 428 946 267 839 l 503 822 q 275 536 339 696 q 386 551 326 551 q 609 468 515 551 q 703 268 703 385 m 556 271 q 506 365 556 325 q 386 404 456 404 q 264 369 307 406 q 219 271 221 333 q 268 174 219 214 q 386 133 317 133 q 505 174 454 133 q 556 271 556 215 z "},"7":{"ha":771,"x_min":69,"x_max":700,"o":"m 700 783 q 425 0 454 414 l 275 0 q 514 783 307 419 l 69 783 l 69 931 l 700 931 l 700 783 z "},"8":{"ha":771,"x_min":69,"x_max":703,"o":"m 703 297 q 608 76 703 169 q 386 -17 514 -17 q 164 76 258 -17 q 69 297 69 169 q 178 511 72 438 q 108 682 110 578 q 191 868 108 790 q 386 946 274 946 q 583 867 499 946 q 667 682 667 789 q 586 513 661 578 q 703 297 699 443 m 517 685 q 478 764 517 732 q 386 796 440 796 q 294 764 332 796 q 256 685 256 732 q 294 615 256 644 q 386 585 332 585 q 478 615 439 585 q 517 685 517 644 m 556 293 q 506 393 556 351 q 386 435 456 435 q 268 394 317 435 q 219 293 219 353 q 268 181 219 228 q 386 133 317 133 q 506 181 457 133 q 556 293 556 228 z "},"9":{"ha":771,"x_min":69,"x_max":703,"o":"m 69 661 q 160 864 69 782 q 386 946 251 946 q 612 860 521 946 q 703 649 703 774 q 604 273 703 456 q 344 -17 506 90 l 269 107 q 497 393 433 233 q 386 378 446 378 q 163 461 257 378 q 69 661 69 544 m 217 658 q 267 565 217 604 q 386 525 317 525 q 508 560 465 524 q 553 658 551 596 q 504 756 553 715 q 386 796 456 796 q 267 755 318 796 q 217 658 217 714 z "}," ":{"ha":354,"x_min":0,"x_max":0,"o":""},"!":{"ha":285,"x_min":67,"x_max":217,"o":"m 217 931 l 217 606 l 189 240 l 93 240 l 67 606 l 67 931 l 217 931 m 217 67 q 194 15 217 38 q 142 -8 171 -8 q 90 15 113 -8 q 67 67 67 38 q 90 119 67 96 q 142 142 113 142 q 194 119 171 142 q 217 67 217 96 z "},"\"":{"ha":604,"x_min":101,"x_max":503,"o":"m 503 931 l 479 554 l 382 554 l 358 931 l 503 931 m 244 931 l 222 554 l 124 554 l 101 931 l 244 931 z "},"#":{"ha":897,"x_min":56,"x_max":842,"o":"m 842 672 l 826 554 l 675 554 l 653 394 l 800 394 l 783 278 l 636 278 l 590 0 l 454 0 l 500 278 l 336 278 l 293 0 l 163 0 l 206 278 l 56 278 l 72 394 l 222 394 l 249 554 l 97 554 l 114 672 l 264 672 l 307 931 l 438 931 l 394 672 l 561 672 l 600 931 l 735 931 l 696 672 l 842 672 m 542 554 l 379 554 l 356 394 l 519 394 l 542 554 z "},"$":{"ha":729,"x_min":47,"x_max":681,"o":"m 428 1044 l 428 886 l 301 886 l 301 1044 l 428 1044 m 428 -1 l 428 -160 l 301 -160 l 301 -1 l 428 -1 m 488 719 q 350 803 443 801 q 260 769 296 803 q 225 690 224 736 q 258 631 225 657 q 361 593 290 604 q 605 480 529 564 q 681 288 681 396 q 590 76 681 168 q 365 -17 500 -17 q 47 200 151 -14 l 188 271 q 368 136 253 136 q 483 183 435 135 q 532 294 532 231 q 494 380 533 338 q 357 440 456 422 q 153 522 224 460 q 82 669 82 583 q 154 859 79 772 q 353 946 229 946 q 611 782 526 942 l 488 719 z "},"%":{"ha":660,"x_min":33,"x_max":626,"o":"m 603 136 l 553 136 q 528 196 554 171 q 467 221 503 221 q 405 197 431 221 q 379 136 379 172 q 405 76 379 101 q 467 50 431 50 q 528 76 503 50 q 553 136 554 101 l 603 136 q 563 40 603 81 q 467 0 522 0 q 372 40 411 0 q 332 136 332 81 q 371 232 332 193 q 467 271 410 271 q 562 231 521 271 q 603 136 603 192 m 324 796 l 274 796 q 249 856 275 831 q 188 881 224 881 q 126 856 151 881 q 100 796 100 832 q 126 735 100 761 q 188 710 151 710 q 249 735 224 710 q 274 796 275 761 l 324 796 q 283 700 324 740 q 188 660 243 660 q 92 700 132 660 q 53 796 53 740 q 92 892 53 853 q 188 931 131 931 q 283 891 242 931 q 324 796 324 851 m 626 931 l 94 0 l 33 0 l 567 931 l 626 931 z "},"&":{"ha":840,"x_min":68,"x_max":772,"o":"m 772 0 l 601 0 l 536 97 q 317 -19 440 -19 q 138 56 207 -19 q 68 251 68 132 q 221 558 72 447 q 161 735 161 647 q 217 884 161 825 q 361 943 272 943 q 565 800 496 940 l 453 743 q 358 819 421 817 q 305 795 326 818 q 283 738 283 772 q 336 610 283 682 l 533 329 q 554 450 551 396 l 674 450 q 614 218 663 310 l 772 0 m 460 208 l 296 439 q 200 254 200 347 q 236 158 200 199 q 322 118 272 118 q 460 208 397 118 z "},"'":{"ha":354,"x_min":106,"x_max":249,"o":"m 249 931 l 226 554 l 128 554 l 106 931 l 249 931 z "},"(":{"ha":396,"x_min":58,"x_max":339,"o":"m 339 -107 l 218 -107 q 58 428 58 118 q 218 956 58 731 l 339 956 q 254 808 286 871 q 179 424 179 649 q 261 36 179 224 q 339 -107 283 -14 z "},")":{"ha":396,"x_min":58,"x_max":339,"o":"m 58 -107 q 136 36 114 -14 q 218 424 218 224 q 143 808 218 649 q 58 956 111 871 l 179 956 q 339 428 339 731 q 179 -107 339 118 l 58 -107 l 58 -107 z "},"*":{"ha":632,"x_min":72,"x_max":558,"o":"m 558 701 l 403 663 l 507 539 l 413 467 l 317 597 l 222 467 l 128 542 l 229 665 l 72 701 l 108 819 l 261 767 l 256 931 l 376 931 l 369 767 l 522 815 l 558 701 z "},"+":{"ha":701,"x_min":43,"x_max":657,"o":"m 657 382 l 422 382 l 422 150 l 276 150 l 276 382 l 43 382 l 43 532 l 276 532 l 276 764 l 422 764 l 422 532 l 657 532 l 657 382 z "},",":{"ha":285,"x_min":67,"x_max":217,"o":"m 217 65 q 181 -60 217 -11 q 74 -126 144 -108 l 74 -104 q 150 -10 140 -65 l 142 -10 q 90 13 113 -10 q 67 65 67 36 q 90 117 67 94 q 142 140 113 140 q 194 117 171 140 q 217 65 217 94 z "},"-":{"ha":410,"x_min":50,"x_max":360,"o":"m 360 382 l 50 382 l 50 532 l 360 532 l 360 382 z "},".":{"ha":285,"x_min":67,"x_max":217,"o":"m 217 65 q 194 12 217 33 q 142 -10 172 -10 q 90 13 113 -10 q 67 65 67 36 q 90 117 67 94 q 142 140 113 140 q 194 117 171 140 q 217 65 217 94 z "},"/":{"ha":672,"x_min":0,"x_max":672,"o":"m 672 931 l 131 0 l 0 0 l 538 931 l 672 931 z "},":":{"ha":285,"x_min":67,"x_max":217,"o":"m 217 621 q 194 567 217 589 q 142 546 172 546 q 90 569 113 546 q 67 621 67 592 q 90 673 67 650 q 142 696 113 696 q 194 673 171 696 q 217 621 217 650 m 217 65 q 194 12 217 33 q 142 -10 172 -10 q 90 13 113 -10 q 67 65 67 36 q 90 117 67 94 q 142 140 113 140 q 194 117 171 140 q 217 65 217 94 z "},";":{"ha":285,"x_min":67,"x_max":217,"o":"m 217 65 q 181 -60 217 -11 q 74 -126 144 -108 l 74 -104 q 150 -10 140 -65 l 142 -10 q 90 13 113 -10 q 67 65 67 36 q 90 117 67 94 q 142 140 113 140 q 194 117 171 140 q 217 65 217 94 m 217 621 q 194 567 217 589 q 142 546 172 546 q 90 569 113 546 q 67 621 67 592 q 90 673 67 650 q 142 696 113 696 q 194 673 171 696 q 217 621 217 650 z "},"<":{"ha":811,"x_min":76,"x_max":735,"o":"m 76 435 l 76 549 l 735 826 l 735 706 l 213 492 l 735 275 l 735 153 l 76 435 z "},"=":{"ha":688,"x_min":32,"x_max":656,"o":"m 656 510 l 32 510 l 32 656 l 656 656 l 656 510 m 656 254 l 32 254 l 32 404 l 656 404 l 656 254 z "},">":{"ha":811,"x_min":76,"x_max":735,"o":"m 76 153 l 76 275 l 599 492 l 76 706 l 76 826 l 735 549 l 735 435 l 76 153 z "},"?":{"ha":715,"x_min":64,"x_max":651,"o":"m 428 65 q 406 12 428 33 q 353 -10 383 -10 q 301 13 324 -10 q 278 65 278 36 q 301 117 278 94 q 353 140 324 140 q 405 117 382 140 q 428 65 428 94 m 651 692 q 569 519 643 604 q 419 251 443 368 l 282 251 q 446 575 313 433 q 504 685 501 631 q 463 776 504 740 q 368 810 422 811 q 192 688 247 804 l 64 742 q 367 944 158 939 q 571 874 490 942 q 651 692 651 806 z "},"@":{"ha":979,"x_min":29,"x_max":949,"o":"m 694 340 q 729 299 692 299 q 815 372 774 299 q 857 526 857 444 q 763 758 857 669 q 517 847 668 847 q 244 734 354 847 q 133 456 133 621 q 237 185 133 292 q 517 78 340 78 q 782 128 665 78 l 808 29 q 521 -19 688 -19 q 166 107 303 -19 q 29 457 29 233 q 168 804 29 663 q 507 946 307 946 q 825 829 701 946 q 949 532 949 713 q 881 306 949 404 q 724 208 814 208 q 606 271 643 207 q 469 236 547 236 q 330 281 378 236 q 282 394 282 325 q 335 515 282 467 q 469 564 388 564 q 575 549 525 564 q 493 610 578 610 q 367 578 428 610 l 318 675 q 493 724 411 724 q 694 529 694 724 l 694 340 m 575 372 l 575 439 q 469 454 518 454 q 419 439 440 454 q 399 401 399 424 q 423 363 399 379 q 481 347 447 347 q 575 372 531 347 z "},"A":{"ha":840,"x_min":28,"x_max":814,"o":"m 814 0 l 658 0 l 567 261 l 276 261 l 185 0 l 28 0 l 347 931 l 494 931 l 814 0 m 514 411 l 422 672 l 328 411 l 514 411 z "},"B":{"ha":771,"x_min":71,"x_max":701,"o":"m 701 278 q 634 83 701 165 q 438 0 567 0 l 71 0 l 71 931 l 424 931 q 607 863 533 931 q 681 675 681 796 q 590 481 679 535 q 701 278 701 418 m 539 664 q 512 747 539 715 q 433 779 485 779 l 218 779 l 218 553 l 432 553 q 508 588 479 553 q 539 664 538 624 m 550 274 q 519 360 549 325 q 443 397 490 396 l 217 397 l 217 147 l 438 147 q 519 186 489 147 q 550 274 550 225 z "},"C":{"ha":771,"x_min":72,"x_max":699,"o":"m 413 132 q 561 229 515 133 l 699 161 q 413 -15 614 -11 q 160 111 249 -15 q 72 465 72 238 q 160 819 72 693 q 413 946 249 946 q 699 769 614 942 l 561 701 q 413 799 515 797 q 271 706 315 799 q 226 465 226 614 q 271 224 226 317 q 413 132 315 132 z "},"D":{"ha":771,"x_min":68,"x_max":703,"o":"m 703 465 q 602 111 701 222 q 358 0 503 0 l 68 0 l 68 931 l 358 931 q 602 819 503 931 q 703 465 701 708 m 215 465 l 215 147 l 358 147 q 503 236 451 150 q 557 465 556 322 q 504 699 557 618 q 358 783 451 781 l 215 783 l 215 465 z "},"E":{"ha":715,"x_min":69,"x_max":647,"o":"m 647 0 l 69 0 l 69 931 l 618 931 l 618 783 l 217 783 l 217 554 l 488 554 l 488 404 l 217 404 l 217 150 l 647 150 l 647 0 z "},"F":{"ha":715,"x_min":69,"x_max":647,"o":"m 647 783 l 217 783 l 217 554 l 488 554 l 488 404 l 217 404 l 217 0 l 69 0 l 69 931 l 647 931 l 647 783 z "},"G":{"ha":785,"x_min":64,"x_max":721,"o":"m 404 132 q 553 304 529 135 l 410 304 l 410 460 l 721 460 l 721 419 q 635 94 719 204 q 408 -17 551 -17 q 152 111 240 -15 q 64 465 64 238 q 152 819 64 693 q 404 946 240 946 q 690 769 606 942 l 553 701 q 404 799 507 797 q 263 706 307 799 q 218 465 218 614 q 263 224 218 317 q 404 132 307 132 z "},"H":{"ha":771,"x_min":69,"x_max":703,"o":"m 703 0 l 556 0 l 556 404 l 217 404 l 217 0 l 69 0 l 69 931 l 217 931 l 217 554 l 556 554 l 556 931 l 703 931 l 703 0 z "},"I":{"ha":382,"x_min":115,"x_max":265,"o":"m 265 0 l 115 0 l 115 931 l 265 931 l 265 0 z "},"J":{"ha":729,"x_min":53,"x_max":674,"o":"m 674 307 q 590 72 672 160 q 376 -17 508 -17 q 53 215 150 -11 l 199 275 q 375 133 258 138 q 485 181 444 133 q 524 306 525 229 l 524 931 l 674 931 l 674 307 z "},"K":{"ha":771,"x_min":61,"x_max":711,"o":"m 711 0 l 540 0 l 306 440 l 208 319 l 208 0 l 61 0 l 61 931 l 208 931 l 208 561 l 501 931 l 690 931 l 404 568 l 711 0 z "},"L":{"ha":715,"x_min":69,"x_max":647,"o":"m 647 0 l 69 0 l 69 931 l 217 931 l 217 150 l 647 150 l 647 0 z "},"M":{"ha":854,"x_min":65,"x_max":790,"o":"m 790 0 l 643 0 l 643 539 l 428 0 l 213 539 l 213 0 l 65 0 l 65 931 l 213 931 l 428 408 l 643 931 l 790 931 l 790 0 z "},"N":{"ha":771,"x_min":69,"x_max":703,"o":"m 703 0 l 572 0 l 217 631 l 217 0 l 69 0 l 69 931 l 217 931 l 556 336 l 556 931 l 703 931 l 703 0 z "},"O":{"ha":785,"x_min":51,"x_max":732,"o":"m 392 -17 q 140 108 228 -17 q 51 465 51 232 q 140 819 51 693 q 392 946 228 946 q 645 819 558 946 q 732 465 732 693 q 645 108 732 232 q 392 -17 558 -17 m 392 799 q 250 706 294 799 q 204 468 206 614 q 248 219 204 304 q 392 136 292 135 q 538 224 497 139 q 581 468 578 308 q 534 708 578 624 q 392 799 490 793 z "},"P":{"ha":771,"x_min":79,"x_max":693,"o":"m 403 404 l 226 404 l 226 0 l 79 0 l 79 931 l 386 931 q 551 901 489 931 q 653 806 614 871 q 693 669 693 740 q 661 536 693 596 q 565 440 629 476 q 403 404 500 403 m 544 667 q 512 750 544 721 q 439 781 479 779 l 224 781 l 224 551 l 444 551 q 515 582 486 551 q 544 667 544 613 z "},"Q":{"ha":785,"x_min":51,"x_max":732,"o":"m 392 -17 q 140 108 228 -17 q 51 465 51 232 q 140 819 51 693 q 392 946 228 946 q 645 819 558 946 q 732 465 732 693 q 643 86 728 196 l 714 -28 l 590 -108 l 521 3 q 392 -17 453 -17 m 392 799 q 250 706 294 799 q 204 468 206 614 q 248 219 204 304 q 392 136 292 135 q 443 146 422 136 l 360 283 l 485 367 l 554 257 q 581 468 581 332 q 534 708 578 624 q 392 799 490 793 z "},"R":{"ha":771,"x_min":69,"x_max":703,"o":"m 703 0 l 543 0 l 393 404 l 217 404 l 217 0 l 69 0 l 69 931 l 438 931 q 617 848 551 929 q 683 669 683 767 q 643 530 683 596 q 539 435 603 464 l 703 0 m 538 665 q 505 749 538 719 q 432 779 472 778 l 217 779 l 217 550 l 438 550 q 508 581 479 550 q 538 665 538 611 z "},"S":{"ha":729,"x_min":47,"x_max":681,"o":"m 488 719 q 350 803 443 801 q 260 769 296 803 q 225 690 224 736 q 258 631 225 657 q 361 593 290 604 q 605 480 529 564 q 681 288 681 396 q 590 76 681 168 q 365 -17 500 -17 q 47 200 151 -14 l 188 271 q 368 136 253 136 q 483 183 435 135 q 532 294 532 231 q 494 380 533 338 q 357 440 456 422 q 153 522 224 460 q 82 669 82 583 q 154 859 79 772 q 353 946 229 946 q 611 782 526 942 l 488 719 z "},"T":{"ha":715,"x_min":69,"x_max":644,"o":"m 644 800 l 429 800 l 429 0 l 282 0 l 282 800 l 69 800 l 69 931 l 644 931 l 644 800 z "},"U":{"ha":771,"x_min":69,"x_max":703,"o":"m 703 333 q 660 140 703 224 q 549 27 625 71 q 386 -17 472 -17 q 224 27 300 -17 q 111 140 147 71 q 69 333 69 224 l 69 931 l 217 931 l 217 333 q 263 188 217 243 q 386 133 310 133 q 509 188 463 133 q 556 333 556 243 l 556 931 l 703 931 l 703 333 z "},"V":{"ha":771,"x_min":32,"x_max":738,"o":"m 738 931 l 450 0 l 315 0 l 32 931 l 186 931 l 385 310 l 581 931 l 738 931 z "},"W":{"ha":882,"x_min":28,"x_max":854,"o":"m 854 931 l 717 0 l 586 0 l 439 597 l 296 0 l 165 0 l 28 931 l 178 931 l 250 440 l 368 931 l 511 931 l 632 440 l 704 931 l 854 931 z "},"X":{"ha":715,"x_min":42,"x_max":675,"o":"m 675 0 l 508 0 l 358 310 l 208 0 l 42 0 l 274 479 l 58 931 l 224 931 l 358 653 l 492 931 l 658 931 l 440 479 l 675 0 z "},"Y":{"ha":868,"x_min":36,"x_max":832,"o":"m 832 931 l 510 404 l 510 0 l 363 0 l 363 404 l 36 931 l 213 931 l 435 571 l 660 931 l 832 931 z "},"Z":{"ha":729,"x_min":47,"x_max":681,"o":"m 681 0 l 47 0 l 47 133 l 479 783 l 83 783 l 83 931 l 681 931 l 681 796 l 242 150 l 681 150 l 681 0 z "},"[":{"ha":382,"x_min":53,"x_max":328,"o":"m 53 961 l 328 961 l 328 860 l 150 860 l 150 -125 l 328 -125 l 328 -226 l 53 -226 l 53 961 z "},"\\":{"ha":672,"x_min":0,"x_max":672,"o":"m 135 931 l 672 0 l 542 0 l 0 931 l 135 931 z "},"]":{"ha":382,"x_min":53,"x_max":328,"o":"m 328 -226 l 53 -226 l 53 -125 l 231 -125 l 231 860 l 53 860 l 53 961 l 328 961 l 328 -226 z "},"^":{"ha":660,"x_min":40,"x_max":619,"o":"m 167 468 l 40 468 l 281 1011 l 379 1011 l 619 468 l 496 468 l 329 872 l 167 468 z "},"_":{"ha":772,"x_min":-21,"x_max":788,"o":"m -21 -276 l -21 -187 l 788 -187 l 788 -276 l -21 -276 z "},"`":{"ha":326,"x_min":38,"x_max":289,"o":"m 188 740 l 38 931 l 199 931 l 289 740 l 188 740 z "},"a":{"ha":660,"x_min":69,"x_max":590,"o":"m 590 0 l 447 0 l 447 22 q 326 -18 393 -17 q 142 45 215 -17 q 69 225 69 107 q 137 395 69 326 q 319 463 204 464 q 439 447 383 463 q 336 558 442 549 q 174 508 246 561 l 100 621 q 332 696 200 692 q 515 634 440 696 q 590 454 589 572 l 590 0 m 435 157 l 435 310 q 313 326 374 326 q 232 294 264 326 q 201 222 200 263 q 234 143 201 181 q 322 106 267 106 q 435 157 382 106 z "},"b":{"ha":701,"x_min":72,"x_max":628,"o":"m 350 -17 q 219 24 278 -17 l 219 0 l 72 0 l 72 872 l 219 946 l 219 647 q 347 696 264 694 q 628 329 628 690 q 350 -17 628 -17 m 483 331 q 347 553 483 544 q 222 485 263 553 l 222 179 q 351 114 274 113 q 483 331 482 115 z "},"c":{"ha":646,"x_min":51,"x_max":593,"o":"m 51 343 q 106 575 51 486 q 335 696 178 696 q 593 525 536 696 l 456 469 q 333 557 425 558 q 225 476 258 557 q 201 343 201 419 q 225 210 201 267 q 333 129 258 129 q 456 217 425 128 l 593 161 q 335 -10 536 -10 q 106 111 178 -10 q 51 343 51 200 z "},"d":{"ha":701,"x_min":72,"x_max":628,"o":"m 350 -17 q 72 329 72 -17 q 353 696 72 690 q 481 647 436 694 l 481 872 l 628 946 l 628 0 l 481 0 l 481 24 q 350 -17 422 -17 m 217 331 q 349 114 218 115 q 478 179 426 113 l 478 485 q 353 553 438 553 q 217 331 217 544 z "},"e":{"ha":660,"x_min":54,"x_max":607,"o":"m 607 278 l 207 278 q 242 170 207 213 q 332 129 276 128 q 451 197 410 126 l 583 143 q 335 -17 514 -12 q 131 76 208 -17 q 54 343 54 169 q 128 591 54 486 q 335 696 203 696 q 533 599 458 696 q 607 278 607 501 m 458 414 q 426 515 460 472 q 335 558 392 558 q 238 513 274 560 q 204 414 201 467 l 458 414 z "},"f":{"ha":396,"x_min":29,"x_max":365,"o":"m 365 544 l 267 544 l 267 0 l 117 0 l 117 544 l 29 544 l 29 679 l 117 679 l 117 783 q 152 894 117 844 q 251 946 188 943 q 365 921 315 946 l 365 800 q 307 814 335 813 q 267 767 268 813 l 267 679 l 365 679 l 365 544 z "},"g":{"ha":701,"x_min":72,"x_max":628,"o":"m 350 -17 q 72 329 72 -17 q 353 696 72 690 q 481 647 436 694 l 481 690 l 628 690 l 628 24 q 379 -336 618 -249 l 318 -214 q 481 24 485 -147 q 350 -17 422 -17 m 217 331 q 349 114 218 115 q 478 179 426 113 l 478 485 q 353 553 438 553 q 217 331 217 544 z "},"h":{"ha":660,"x_min":58,"x_max":600,"o":"m 58 874 l 203 946 l 203 644 q 365 696 264 696 q 542 615 483 696 q 600 428 600 535 l 600 0 l 457 0 l 457 425 q 422 520 460 478 q 328 560 385 563 q 237 525 268 560 q 206 425 206 490 l 206 0 l 58 0 l 58 874 z "},"i":{"ha":340,"x_min":94,"x_max":246,"o":"m 244 871 q 222 817 244 839 q 169 796 200 796 q 117 819 140 796 q 94 871 94 842 q 117 923 94 900 q 169 946 140 946 q 222 923 199 946 q 244 871 244 900 m 246 0 l 94 0 l 94 679 l 246 679 l 246 0 z "},"j":{"ha":340,"x_min":0,"x_max":246,"o":"m 244 871 q 222 817 244 839 q 169 796 200 796 q 117 819 140 796 q 94 871 94 842 q 117 923 94 900 q 169 946 140 946 q 222 923 199 946 q 244 871 244 900 m 246 0 q 60 -336 228 -239 l 0 -201 q 94 0 85 -131 l 94 679 l 246 679 l 246 0 z "},"k":{"ha":714,"x_min":57,"x_max":657,"o":"m 657 0 l 488 0 l 292 382 l 207 293 l 207 0 l 57 0 l 57 871 l 207 946 l 207 483 l 393 679 l 582 679 l 403 493 l 657 0 z "},"l":{"ha":340,"x_min":94,"x_max":244,"o":"m 244 0 l 94 0 l 94 871 l 244 946 l 244 0 z "},"m":{"ha":1076,"x_min":79,"x_max":999,"o":"m 999 0 l 853 0 l 853 440 q 819 520 854 481 q 732 558 783 560 q 651 522 682 558 q 621 440 619 486 l 621 0 l 464 0 l 464 440 q 431 522 465 483 q 344 558 396 560 q 266 522 299 557 q 232 440 233 486 l 232 0 l 79 0 l 79 690 l 229 690 l 229 649 q 376 699 292 699 q 557 603 492 699 q 742 697 624 697 q 920 619 843 697 q 999 438 997 542 l 999 0 z "},"n":{"ha":660,"x_min":58,"x_max":600,"o":"m 58 688 l 203 688 l 203 644 q 365 696 264 696 q 542 615 483 696 q 600 428 600 535 l 600 0 l 457 0 l 457 425 q 422 520 460 478 q 328 560 385 563 q 237 525 268 560 q 206 425 206 490 l 206 0 l 58 0 l 58 688 z "},"o":{"ha":660,"x_min":47,"x_max":614,"o":"m 614 340 q 558 111 613 200 q 331 -17 486 -10 q 103 111 175 -10 q 47 340 49 200 q 103 575 49 486 q 331 696 176 692 q 558 575 485 692 q 614 340 613 486 m 329 131 q 447 210 410 131 q 472 339 472 265 q 447 472 472 417 q 329 551 411 551 q 214 472 250 551 q 189 339 189 417 q 214 210 189 265 q 329 131 256 131 z "},"p":{"ha":701,"x_min":72,"x_max":628,"o":"m 350 -17 q 219 24 278 -17 l 219 -262 l 72 -336 l 72 690 l 219 690 l 219 647 q 347 696 264 694 q 628 329 628 690 q 350 -17 628 -17 m 483 331 q 347 553 483 544 q 222 485 263 553 l 222 179 q 351 114 274 113 q 483 331 482 115 z "},"q":{"ha":701,"x_min":72,"x_max":628,"o":"m 350 -17 q 72 329 72 -17 q 353 696 72 690 q 481 647 436 694 l 481 690 l 628 690 l 628 -262 l 481 -336 l 481 24 q 350 -17 422 -17 m 217 331 q 349 114 218 115 q 478 179 426 113 l 478 485 q 353 553 438 553 q 217 331 217 544 z "},"r":{"ha":488,"x_min":78,"x_max":460,"o":"m 460 649 l 411 514 q 326 554 369 556 q 228 424 233 551 l 228 0 l 78 0 l 78 690 l 226 690 l 226 640 q 335 696 264 696 q 460 649 406 694 z "},"s":{"ha":590,"x_min":42,"x_max":549,"o":"m 549 183 q 479 40 547 94 q 292 -17 411 -15 q 42 88 156 -15 l 139 185 q 292 117 224 118 q 374 137 340 115 q 407 190 408 158 q 376 250 408 222 q 274 306 344 278 q 124 392 171 340 q 76 511 76 443 q 133 638 72 579 q 292 697 193 697 q 540 590 442 694 l 447 497 q 294 563 379 560 q 240 548 260 563 q 218 508 219 533 q 234 472 217 486 q 321 432 251 458 q 484 343 419 401 q 549 183 549 285 z "},"t":{"ha":424,"x_min":32,"x_max":392,"o":"m 390 149 l 350 1 q 269 -17 315 -17 q 174 32 217 -17 q 131 163 131 81 l 131 542 l 32 542 l 32 679 l 131 679 l 131 875 l 274 946 l 274 679 l 392 679 l 392 544 l 274 544 l 274 179 q 315 121 274 124 q 390 149 350 119 z "},"u":{"ha":660,"x_min":58,"x_max":600,"o":"m 600 0 l 456 0 l 456 35 q 293 -17 394 -17 q 117 64 175 -17 q 58 251 58 144 l 58 679 l 201 679 l 201 254 q 236 159 199 201 q 331 119 274 117 q 422 154 390 119 q 453 254 453 189 l 453 679 l 600 679 l 600 0 z "},"v":{"ha":701,"x_min":22,"x_max":678,"o":"m 678 679 l 414 0 l 283 0 l 22 679 l 179 679 l 349 222 l 513 679 l 678 679 z "},"w":{"ha":899,"x_min":21,"x_max":876,"o":"m 876 679 l 721 0 l 585 0 l 443 467 l 307 0 l 172 0 l 21 679 l 164 679 l 250 314 l 369 679 l 525 679 l 642 314 l 732 679 l 876 679 z "},"x":{"ha":729,"x_min":19,"x_max":710,"o":"m 710 0 l 533 0 l 364 251 l 189 0 l 19 0 l 274 375 l 67 679 l 243 679 l 364 503 l 479 679 l 653 679 l 453 376 l 710 0 z "},"y":{"ha":729,"x_min":19,"x_max":711,"o":"m 711 679 l 308 -335 l 144 -335 l 281 0 l 19 679 l 179 679 l 365 203 l 544 679 l 711 679 z "},"z":{"ha":590,"x_min":40,"x_max":549,"o":"m 549 544 l 225 133 l 549 133 l 549 0 l 40 0 l 40 118 l 376 544 l 71 544 l 71 679 l 549 679 l 549 544 z "},"{":{"ha":465,"x_min":36,"x_max":429,"o":"m 36 415 q 165 517 142 418 q 176 676 175 564 q 181 826 176 728 q 307 1004 196 974 q 390 1011 331 1011 l 429 1011 l 429 904 l 407 904 q 310 872 332 904 q 290 765 290 846 q 283 542 290 586 q 242 431 272 471 q 149 360 213 390 q 269 235 239 322 q 290 54 290 174 q 293 -103 290 -79 q 328 -172 300 -154 q 407 -186 351 -186 l 429 -186 l 429 -292 l 390 -292 q 294 -282 325 -292 q 185 -143 203 -249 q 181 -1 181 -110 q 172 160 181 107 q 121 276 160 244 q 36 304 88 303 l 36 415 z "},"|":{"ha":285,"x_min":107,"x_max":176,"o":"m 107 -292 l 107 1011 l 176 1011 l 176 -292 l 107 -292 z "},"}":{"ha":465,"x_min":36,"x_max":429,"o":"m 429 304 q 344 276 378 303 q 293 160 306 244 q 285 -1 285 107 q 281 -143 285 -110 q 171 -282 263 -249 q 75 -292 140 -292 l 36 -292 l 36 -186 l 58 -186 q 138 -172 114 -186 q 172 -103 165 -154 q 175 54 175 -79 q 196 235 175 174 q 317 360 226 322 q 223 431 253 390 q 182 542 193 471 q 175 765 175 586 q 156 872 175 846 q 58 904 133 904 l 36 904 l 36 1011 l 75 1011 q 158 1004 135 1011 q 285 826 269 974 q 289 676 289 728 q 300 517 290 564 q 429 415 324 418 l 429 304 z "},"~":{"ha":811,"x_min":58,"x_max":753,"o":"m 58 378 l 58 517 q 247 599 131 599 q 461 539 321 599 q 578 507 536 507 q 753 600 668 507 l 753 457 q 565 379 671 379 q 369 435 493 379 q 236 469 289 469 q 58 378 154 469 z "},"€":{"ha":785,"x_min":56,"x_max":728,"o":"m 476 508 l 56 508 l 56 590 l 476 590 l 476 508 m 476 343 l 56 343 l 56 425 l 476 425 l 476 343 m 442 132 q 590 229 544 133 l 728 161 q 442 -15 643 -11 q 190 111 278 -15 q 101 465 101 238 q 190 819 101 693 q 442 946 278 946 q 728 769 643 942 l 590 701 q 442 799 544 797 q 300 706 344 799 q 256 465 256 614 q 300 224 256 317 q 442 132 344 132 z "},"ƒ":{"ha":396,"x_min":29,"x_max":365,"o":"m 365 544 l 267 544 l 267 -261 l 117 -336 l 117 544 l 29 544 l 29 679 l 117 679 l 117 783 q 152 894 117 844 q 251 946 188 943 q 365 921 315 946 l 365 800 q 307 814 335 813 q 267 767 268 813 l 267 679 l 365 679 l 365 544 z "},"„":{"ha":549,"x_min":75,"x_max":472,"o":"m 472 65 q 436 -60 472 -11 q 329 -126 400 -108 l 329 -104 q 406 -10 396 -65 l 397 -10 q 345 13 368 -10 q 322 65 322 36 q 345 117 322 94 q 397 140 368 140 q 449 117 426 140 q 472 65 472 94 m 225 65 q 189 -60 225 -11 q 82 -126 153 -108 l 82 -104 q 158 -10 149 -65 l 150 -10 q 98 13 121 -10 q 75 65 75 36 q 98 117 75 94 q 150 140 121 140 q 202 117 179 140 q 225 65 225 94 z "},"…":{"ha":910,"x_min":68,"x_max":842,"o":"m 529 65 q 507 12 529 33 q 454 -10 485 -10 q 402 13 425 -10 q 379 65 379 36 q 402 117 379 94 q 454 140 425 140 q 506 117 483 140 q 529 65 529 94 m 842 65 q 819 12 842 33 q 767 -10 797 -10 q 715 13 738 -10 q 692 65 692 36 q 715 117 692 94 q 767 140 738 140 q 819 117 796 140 q 842 65 842 94 m 218 65 q 196 12 218 33 q 143 -10 174 -10 q 91 13 114 -10 q 68 65 68 36 q 91 117 68 94 q 143 140 114 140 q 195 117 172 140 q 218 65 218 94 z "},"†":{"ha":632,"x_min":53,"x_max":578,"o":"m 340 618 l 340 -150 l 286 -150 l 286 618 l 53 618 l 53 681 l 286 681 l 286 960 l 340 960 l 340 681 l 578 681 l 578 618 l 340 618 z "},"‡":{"ha":632,"x_min":53,"x_max":578,"o":"m 340 618 l 340 197 l 578 197 l 578 133 l 340 133 l 340 -150 l 286 -150 l 286 133 l 53 133 l 53 196 l 286 196 l 286 618 l 53 618 l 53 681 l 286 681 l 286 960 l 340 960 l 340 681 l 578 681 l 578 618 l 340 618 z "},"ˆ":{"ha":438,"x_min":19,"x_max":417,"o":"m 324 740 l 218 846 l 113 740 l 19 740 l 146 931 l 290 931 l 417 740 l 324 740 z "},"‰":{"ha":979,"x_min":40,"x_max":938,"o":"m 938 136 l 888 136 q 863 196 889 171 q 801 221 838 221 q 740 197 765 221 q 714 136 714 172 q 740 76 714 101 q 801 50 765 50 q 863 76 838 50 q 888 136 889 101 l 938 136 q 897 40 938 81 q 801 0 857 0 q 706 40 746 0 q 667 136 667 81 q 706 232 667 193 q 801 271 744 271 q 897 231 856 271 q 938 136 938 192 m 331 796 l 281 796 q 256 856 282 831 q 194 881 231 881 q 133 856 158 881 q 107 796 107 832 q 133 735 107 761 q 194 710 158 710 q 256 735 231 710 q 281 796 282 761 l 331 796 q 290 700 331 740 q 194 660 250 660 q 99 700 139 660 q 60 796 60 740 q 99 892 60 853 q 194 931 138 931 q 290 891 249 931 q 331 796 331 851 m 633 931 l 101 0 l 40 0 l 574 931 l 633 931 m 610 136 l 560 136 q 535 196 561 171 q 474 221 510 221 q 412 197 438 221 q 386 136 386 172 q 412 76 386 101 q 474 50 438 50 q 535 76 510 50 q 560 136 561 101 l 610 136 q 569 40 610 81 q 474 0 529 0 q 378 40 418 0 q 339 136 339 81 q 378 232 339 193 q 474 271 417 271 q 569 231 528 271 q 610 136 610 192 z "},"Š":{"ha":729,"x_min":47,"x_max":681,"o":"m 563 1164 l 436 974 l 292 974 l 165 1164 l 258 1164 l 364 1058 l 469 1164 l 563 1164 m 488 719 q 350 803 443 801 q 260 769 296 803 q 225 690 224 736 q 258 631 225 657 q 361 593 290 604 q 605 480 529 564 q 681 288 681 396 q 590 76 681 168 q 365 -17 500 -17 q 47 200 151 -14 l 188 271 q 368 136 253 136 q 483 183 435 135 q 532 294 532 231 q 494 380 533 338 q 357 440 456 422 q 153 522 224 460 q 82 669 82 583 q 154 859 79 772 q 353 946 229 946 q 611 782 526 942 l 488 719 z "},"‹":{"ha":382,"x_min":29,"x_max":354,"o":"m 354 696 l 193 411 l 354 126 l 192 126 l 29 411 l 192 696 l 354 696 z "},"Œ":{"ha":1229,"x_min":60,"x_max":1169,"o":"m 400 -17 q 148 108 236 -17 q 60 465 60 232 q 148 819 60 693 q 400 946 236 946 q 653 819 567 946 q 740 465 740 693 q 653 108 740 232 q 400 -17 567 -17 m 400 799 q 258 706 303 799 q 213 468 214 614 q 256 219 213 304 q 400 136 300 135 q 546 224 506 139 q 589 468 586 308 q 542 708 586 624 q 400 799 499 793 m 1169 0 l 592 0 l 592 931 l 1140 931 l 1140 783 l 739 783 l 739 554 l 1010 554 l 1010 404 l 739 404 l 739 150 l 1169 150 l 1169 0 z "},"Ž":{"ha":729,"x_min":47,"x_max":681,"o":"m 681 0 l 47 0 l 47 133 l 479 783 l 83 783 l 83 931 l 681 931 l 681 796 l 242 150 l 681 150 l 681 0 m 563 1164 l 436 974 l 292 974 l 165 1164 l 258 1164 l 364 1058 l 469 1164 l 563 1164 z "},"‘":{"ha":285,"x_min":67,"x_max":217,"o":"m 67 739 q 103 864 67 815 q 210 931 139 913 l 210 908 q 133 814 143 869 l 142 814 q 194 791 171 814 q 217 739 217 768 q 194 687 217 710 q 142 664 171 664 q 90 687 113 664 q 67 739 67 710 z "},"’":{"ha":285,"x_min":67,"x_max":217,"o":"m 217 856 q 181 731 217 779 q 74 664 144 682 l 74 686 q 150 781 140 725 l 142 781 q 90 803 113 781 q 67 856 67 826 q 90 908 67 885 q 142 931 113 931 q 194 908 171 931 q 217 856 217 885 z "},"“":{"ha":549,"x_min":75,"x_max":472,"o":"m 75 739 q 111 864 75 815 q 218 931 147 913 l 218 908 q 142 814 151 869 l 150 814 q 202 791 179 814 q 225 739 225 768 q 202 687 225 710 q 150 664 179 664 q 98 687 121 664 q 75 739 75 710 m 322 739 q 358 864 322 815 q 465 931 394 913 l 465 908 q 389 814 399 869 l 397 814 q 449 791 426 814 q 472 739 472 768 q 449 687 472 710 q 397 664 426 664 q 345 687 368 664 q 322 739 322 710 z "},"”":{"ha":549,"x_min":75,"x_max":472,"o":"m 472 856 q 436 731 472 779 q 329 664 400 682 l 329 686 q 406 781 396 725 l 397 781 q 345 803 368 781 q 322 856 322 826 q 345 908 322 885 q 397 931 368 931 q 449 908 426 931 q 472 856 472 885 m 225 856 q 189 731 225 779 q 82 664 153 682 l 82 686 q 158 781 149 725 l 150 781 q 98 803 121 781 q 75 856 75 826 q 98 908 75 885 q 150 931 121 931 q 202 908 179 931 q 225 856 225 885 z "},"•":{"ha":868,"x_min":83,"x_max":785,"o":"m 785 421 q 683 171 785 272 q 433 69 581 69 q 185 172 288 69 q 83 421 83 275 q 185 669 83 568 q 433 771 286 771 q 682 669 579 771 q 785 421 785 568 z "},"–":{"ha":743,"x_min":47,"x_max":696,"o":"m 696 382 l 47 382 l 47 532 l 696 532 l 696 382 z "},"—":{"ha":1396,"x_min":49,"x_max":1347,"o":"m 1347 382 l 49 382 l 49 532 l 1347 532 l 1347 382 z "},"˜":{"ha":451,"x_min":28,"x_max":425,"o":"m 425 931 q 374 814 407 851 q 292 776 342 776 q 268 779 275 776 q 246 786 261 782 l 186 804 q 165 808 172 807 q 149 810 157 810 q 115 799 128 810 q 94 761 103 788 l 28 761 q 70 876 38 840 q 151 913 103 913 q 178 909 164 911 q 208 903 192 907 l 265 888 q 282 883 275 885 q 300 881 289 881 q 332 894 319 881 q 349 931 344 907 l 425 931 z "},"™":{"ha":1021,"x_min":51,"x_max":968,"o":"m 406 836 l 275 836 l 275 451 l 182 451 l 182 836 l 51 836 l 51 931 l 406 931 l 406 836 m 968 451 l 868 451 l 868 711 l 735 451 l 597 711 l 597 451 l 499 451 l 499 931 l 597 931 l 735 668 l 868 931 l 968 931 l 968 451 z "},"š":{"ha":590,"x_min":42,"x_max":549,"o":"m 494 911 l 368 721 l 224 721 l 97 911 l 190 911 l 296 806 l 401 911 l 494 911 m 549 183 q 479 40 547 94 q 292 -17 411 -15 q 42 88 156 -15 l 139 185 q 292 117 224 118 q 374 137 340 115 q 407 190 408 158 q 376 250 408 222 q 274 306 344 278 q 124 392 171 340 q 76 511 76 443 q 133 638 72 579 q 292 697 193 697 q 540 590 442 694 l 447 497 q 294 563 379 560 q 240 548 260 563 q 218 508 219 533 q 234 472 217 486 q 321 432 251 458 q 484 343 419 401 q 549 183 549 285 z "},"›":{"ha":382,"x_min":29,"x_max":354,"o":"m 192 696 l 354 411 l 192 126 l 29 126 l 190 411 l 29 696 l 192 696 z "},"œ":{"ha":1021,"x_min":26,"x_max":994,"o":"m 593 340 q 538 111 592 200 q 310 -17 465 -10 q 82 111 154 -10 q 26 340 28 200 q 82 575 28 486 q 310 696 156 692 q 538 575 464 692 q 593 340 592 486 m 310 131 q 418 210 383 131 q 442 339 442 265 q 418 472 442 417 q 310 551 385 551 q 201 472 235 551 q 178 339 178 417 q 201 210 178 265 q 310 131 240 131 m 994 278 l 594 278 q 629 170 594 213 q 719 129 664 128 q 839 197 797 126 l 971 143 q 722 -17 901 -12 q 519 76 596 -17 q 442 343 442 169 q 516 591 442 486 q 722 696 590 696 q 920 599 846 696 q 994 278 994 501 m 846 414 q 813 515 847 472 q 722 558 779 558 q 625 513 661 560 q 592 414 589 467 l 846 414 z "},"ž":{"ha":590,"x_min":40,"x_max":549,"o":"m 549 544 l 225 133 l 549 133 l 549 0 l 40 0 l 40 118 l 376 544 l 71 544 l 71 679 l 549 679 l 549 544 m 494 911 l 368 721 l 224 721 l 97 911 l 190 911 l 296 806 l 401 911 l 494 911 z "},"Ÿ":{"ha":868,"x_min":36,"x_max":832,"o":"m 389 1067 q 369 1018 389 1039 q 319 997 349 997 q 272 1018 293 997 q 251 1067 251 1039 q 272 1115 251 1094 q 319 1135 292 1135 q 369 1115 349 1135 q 389 1067 389 1096 m 615 1067 q 595 1018 615 1039 q 546 997 575 997 q 499 1018 519 997 q 478 1067 478 1039 q 498 1115 478 1094 q 546 1135 518 1135 q 595 1115 575 1135 q 615 1067 615 1096 m 832 931 l 510 404 l 510 0 l 363 0 l 363 404 l 36 931 l 213 931 l 435 571 l 660 931 l 832 931 z "},"¡":{"ha":285,"x_min":67,"x_max":217,"o":"m 67 -8 l 67 317 l 94 682 l 190 682 l 217 317 l 217 -8 l 67 -8 m 67 856 q 90 908 67 885 q 142 931 113 931 q 194 908 171 931 q 217 856 217 885 q 194 803 217 826 q 142 781 171 781 q 90 803 113 781 q 67 856 67 826 z "},"¢":{"ha":646,"x_min":51,"x_max":593,"o":"m 51 464 q 106 696 51 607 q 335 817 178 817 q 593 646 536 817 l 456 590 q 333 678 425 679 q 225 597 258 678 q 201 464 201 540 q 225 331 201 388 q 333 250 258 250 q 456 338 425 249 l 593 282 q 335 111 536 111 q 106 232 178 111 q 51 464 51 321 m 303 0 l 303 931 l 379 931 l 379 0 l 303 0 z "},"£":{"ha":660,"x_min":39,"x_max":622,"o":"m 96 565 l 154 565 l 154 657 q 218 850 156 771 q 397 931 281 929 q 621 794 558 926 l 500 733 q 399 800 478 797 q 322 763 347 799 q 297 679 296 726 l 297 565 l 460 565 l 460 428 l 304 428 l 304 321 q 238 136 299 201 l 622 136 l 622 0 l 39 0 l 39 136 l 54 136 q 154 353 149 226 l 154 428 l 96 428 l 96 565 z "},"¤":{"ha":771,"x_min":51,"x_max":718,"o":"m 146 651 l 51 744 l 129 825 l 224 731 q 385 779 296 779 q 546 731 474 779 l 639 825 l 718 744 l 624 651 q 672 492 672 578 q 624 332 672 407 l 718 240 l 639 160 l 546 254 q 385 204 474 204 q 224 254 296 204 l 129 160 l 51 240 l 146 332 q 97 492 97 407 q 146 651 97 578 m 208 492 q 260 368 208 419 q 383 317 311 317 q 508 368 457 317 q 560 492 560 419 q 508 617 560 565 q 383 668 457 668 q 260 617 311 668 q 208 492 208 565 z "},"¥":{"ha":868,"x_min":36,"x_max":832,"o":"m 832 254 l 36 254 l 36 404 l 832 404 l 832 254 m 832 931 l 510 404 l 510 0 l 363 0 l 363 404 l 36 931 l 213 931 l 435 571 l 660 931 l 832 931 z "},"¦":{"ha":285,"x_min":108,"x_max":178,"o":"m 178 1011 l 178 475 l 108 475 l 108 1011 l 178 1011 m 178 244 l 178 -292 l 108 -292 l 108 244 l 178 244 z "},"§":{"ha":599,"x_min":42,"x_max":556,"o":"m 556 117 q 478 -33 551 21 q 292 -87 406 -87 q 42 17 163 -86 l 139 114 q 292 43 207 49 q 381 62 351 42 q 411 117 411 82 q 387 179 413 151 q 272 236 361 207 q 127 319 178 267 q 76 440 76 372 q 157 599 74 540 q 75 760 75 658 q 131 887 71 828 q 290 946 192 946 q 538 842 431 940 l 447 751 q 290 818 381 810 q 239 803 258 818 q 217 763 219 789 q 237 721 218 738 q 315 681 256 704 q 484 587 425 643 q 547 422 543 531 q 482 288 549 343 q 556 117 556 228 m 358 336 q 403 419 403 364 q 357 499 397 474 q 267 542 317 525 q 217 449 217 511 q 255 385 217 408 q 358 336 293 363 z "},"¨":{"ha":493,"x_min":65,"x_max":429,"o":"m 203 863 q 183 814 203 835 q 133 793 163 793 q 86 814 107 793 q 65 863 65 835 q 85 910 65 890 q 133 931 106 931 q 183 911 163 931 q 203 863 203 892 m 429 863 q 409 814 429 835 q 360 793 389 793 q 313 814 333 793 q 292 863 292 835 q 312 910 292 890 q 360 931 332 931 q 409 911 389 931 q 429 863 429 892 z "},"©":{"ha":1035,"x_min":39,"x_max":994,"o":"m 517 946 q 756 882 643 946 q 929 708 869 818 q 994 468 994 594 q 930 228 994 342 q 753 53 865 115 q 517 -8 640 -8 q 276 56 389 -8 q 101 233 164 121 q 39 468 39 344 q 105 711 39 597 q 284 885 171 825 q 517 946 397 946 m 517 868 q 318 814 411 868 q 172 668 225 760 q 119 468 119 572 q 174 268 119 361 q 322 122 228 175 q 517 69 415 69 q 716 124 622 69 q 862 272 810 179 q 914 468 914 365 q 859 671 914 576 q 710 817 804 765 q 517 868 615 868 m 669 392 l 747 368 q 666 240 728 286 q 517 194 604 194 q 331 272 399 194 q 267 467 267 346 q 389 706 267 640 q 522 736 446 736 q 738 588 694 736 l 663 569 q 519 667 624 667 q 393 606 438 667 q 353 465 353 551 q 390 328 353 381 q 514 269 432 269 q 614 303 571 269 q 669 392 657 336 z "},"ª":{"ha":438,"x_min":56,"x_max":382,"o":"m 382 492 l 294 492 l 294 507 q 218 481 260 481 q 101 527 147 481 q 56 639 56 574 q 100 751 56 707 q 214 794 144 796 q 289 785 253 794 q 225 857 290 851 q 122 825 168 860 l 76 899 q 222 946 139 946 q 336 906 290 946 q 382 789 382 867 l 382 492 m 290 596 l 290 697 q 213 710 256 708 q 160 690 176 708 q 143 642 143 672 q 163 588 143 611 q 211 564 182 564 q 290 596 256 561 z "},"«":{"ha":715,"x_min":38,"x_max":678,"o":"m 363 696 l 201 411 l 363 126 l 200 126 l 38 411 l 200 696 l 363 696 m 678 696 l 517 411 l 678 126 l 515 126 l 353 411 l 515 696 l 678 696 z "},"¬":{"ha":743,"x_min":47,"x_max":696,"o":"m 546 174 l 546 382 l 47 382 l 47 532 l 696 532 l 696 174 l 546 174 z "},"®":{"ha":979,"x_min":28,"x_max":951,"o":"m 490 946 q 723 884 614 946 q 890 715 832 822 q 951 483 951 604 q 890 250 951 360 q 719 81 828 140 q 490 21 611 21 q 257 83 365 21 q 88 255 149 146 q 28 483 28 364 q 92 718 28 608 q 265 887 156 828 q 490 946 374 946 m 490 861 q 302 810 390 861 q 164 672 214 760 q 115 482 115 579 q 166 290 115 379 q 306 151 217 200 q 490 101 394 101 q 681 153 592 101 q 820 294 769 204 q 871 482 871 383 q 817 674 871 583 q 675 813 764 765 q 490 861 586 861 m 288 228 l 288 725 l 458 725 q 563 718 529 725 q 649 664 619 706 q 671 590 671 629 q 635 492 671 532 q 543 444 604 451 l 706 228 l 617 228 l 451 439 l 367 439 l 367 228 l 288 228 m 367 508 l 465 508 q 543 519 519 507 q 586 583 589 536 q 539 650 586 631 q 458 658 518 658 l 367 658 l 367 508 z "},"¯":{"ha":451,"x_min":43,"x_max":408,"o":"m 43 901 l 408 901 l 408 839 l 43 839 l 43 901 z "},"°":{"ha":521,"x_min":72,"x_max":449,"o":"m 72 743 q 125 875 72 821 q 257 931 179 931 q 393 876 338 931 q 449 743 449 822 q 393 610 449 664 q 257 554 336 554 q 126 608 179 554 q 72 743 72 664 m 143 743 q 176 661 143 694 q 257 628 211 628 q 339 661 306 628 q 374 743 374 696 q 340 824 374 790 q 257 857 306 857 q 178 824 211 857 q 143 743 143 790 z "},"±":{"ha":701,"x_min":43,"x_max":657,"o":"m 657 425 l 422 425 l 422 193 l 276 193 l 276 425 l 43 425 l 43 575 l 276 575 l 276 807 l 422 807 l 422 575 l 657 575 l 657 425 m 657 6 l 43 6 l 43 156 l 657 156 l 657 6 z "},"²":{"ha":451,"x_min":46,"x_max":406,"o":"m 406 390 l 46 390 q 235 693 50 586 q 322 786 325 743 q 297 837 322 817 q 229 860 271 857 q 129 782 156 854 l 46 807 q 113 906 65 865 q 225 946 161 946 q 353 899 301 946 q 406 789 406 851 q 285 622 404 686 q 149 479 171 554 l 406 479 l 406 390 z "},"³":{"ha":450,"x_min":40,"x_max":407,"o":"m 407 576 q 356 442 407 494 q 222 389 304 389 q 115 422 163 389 q 40 519 68 456 l 122 549 q 226 476 154 479 q 295 503 268 476 q 322 571 322 531 q 250 650 321 642 l 225 650 l 225 736 l 250 736 q 301 789 301 736 q 279 840 301 819 q 225 860 257 860 q 144 808 167 861 l 67 828 q 129 917 88 889 q 222 946 171 946 q 338 899 290 946 q 386 783 386 851 q 349 696 386 726 q 407 576 404 656 z "},"´":{"ha":326,"x_min":38,"x_max":289,"o":"m 38 740 l 128 931 l 289 931 l 139 740 l 38 740 z "},"µ":{"ha":660,"x_min":58,"x_max":600,"o":"m 600 0 l 456 -72 l 456 35 q 321 -17 394 -17 q 201 33 247 -17 l 201 -143 l 58 -215 l 58 679 l 201 679 l 201 254 q 236 159 199 201 q 331 119 274 117 q 422 154 390 119 q 453 254 453 189 l 453 679 l 600 679 l 600 0 z "},"¶":{"ha":521,"x_min":26,"x_max":496,"o":"m 197 0 l 197 521 q 74 578 121 525 q 26 722 26 632 q 83 881 26 825 q 226 931 136 931 l 496 931 l 496 844 l 433 844 l 433 0 l 361 0 l 361 844 l 267 844 l 267 0 l 197 0 z "},"·":{"ha":285,"x_min":67,"x_max":217,"o":"m 217 621 q 194 567 217 589 q 142 546 172 546 q 90 569 113 546 q 67 621 67 592 q 90 673 67 650 q 142 696 113 696 q 194 673 171 696 q 217 621 217 650 z "},"¸":{"ha":368,"x_min":36,"x_max":331,"o":"m 36 -244 l 36 -169 q 115 -188 78 -182 q 181 -194 153 -194 q 215 -184 204 -194 q 226 -151 226 -174 q 212 -126 226 -135 q 163 -118 197 -118 q 145 -118 151 -118 q 133 -118 139 -118 l 133 0 l 194 0 l 194 -44 l 206 -44 q 297 -72 264 -44 q 331 -153 331 -100 q 294 -243 331 -212 q 190 -274 258 -274 q 122 -266 160 -274 q 36 -244 83 -258 z "},"¹":{"ha":271,"x_min":67,"x_max":206,"o":"m 206 375 l 117 375 l 117 824 l 67 824 l 67 894 q 136 931 114 897 l 206 931 l 206 375 z "},"º":{"ha":465,"x_min":40,"x_max":425,"o":"m 425 714 q 386 565 422 622 q 232 481 336 482 q 75 565 124 483 q 40 714 40 622 q 75 868 40 810 q 232 946 126 944 q 386 868 335 944 q 425 714 422 810 m 232 578 q 306 629 281 578 q 321 714 321 665 q 306 800 321 764 q 232 853 282 853 q 156 800 179 853 q 140 714 140 764 q 156 629 140 665 q 232 578 183 578 z "},"»":{"ha":715,"x_min":38,"x_max":678,"o":"m 515 696 l 678 411 l 515 126 l 353 126 l 514 411 l 353 696 l 515 696 m 200 696 l 363 411 l 200 126 l 38 126 l 199 411 l 38 696 l 200 696 z "},"¼":{"ha":1160,"x_min":76,"x_max":1083,"o":"m 1083 151 l 1021 151 l 1021 0 l 921 0 l 921 151 l 621 151 l 621 239 l 921 604 l 1021 604 l 1021 238 l 1083 238 l 1083 151 m 921 238 l 921 454 l 742 238 l 921 238 m 219 342 l 128 342 l 128 828 l 76 828 l 76 906 q 149 946 126 908 l 219 946 l 219 342 m 201 0 l 815 947 l 892 947 l 286 0 l 201 0 z "},"½":{"ha":1285,"x_min":85,"x_max":1199,"o":"m 210 0 l 824 947 l 900 947 l 294 0 l 210 0 m 228 342 l 136 342 l 136 828 l 85 828 l 85 906 q 157 946 135 908 l 228 946 l 228 342 m 1199 0 l 801 0 q 1010 329 807 213 q 1104 431 1108 383 q 1076 486 1104 464 q 1004 510 1049 508 q 893 425 922 504 l 801 453 q 877 560 824 517 q 999 604 931 604 q 1139 553 1079 604 q 1199 433 1199 501 q 1064 251 1194 321 q 915 96 939 178 l 1199 96 l 1199 0 z "},"¿":{"ha":715,"x_min":64,"x_max":651,"o":"m 288 869 q 310 923 288 901 q 363 944 332 944 q 415 922 392 944 q 438 869 438 899 q 415 817 438 840 q 363 794 392 794 q 310 817 333 794 q 288 869 288 840 m 64 243 q 146 415 72 331 q 296 683 272 567 l 433 683 q 269 360 403 501 q 211 250 214 304 q 252 159 211 194 q 347 125 293 124 q 524 247 468 131 l 651 193 q 349 -10 557 -4 q 144 61 225 -7 q 64 243 64 129 z "},"À":{"ha":840,"x_min":28,"x_max":814,"o":"m 444 969 l 294 1160 l 456 1160 l 546 969 l 444 969 m 814 0 l 658 0 l 567 261 l 276 261 l 185 0 l 28 0 l 347 931 l 494 931 l 814 0 m 514 411 l 422 672 l 328 411 l 514 411 z "},"Á":{"ha":840,"x_min":28,"x_max":814,"o":"m 294 969 l 385 1160 l 546 1160 l 396 969 l 294 969 m 814 0 l 658 0 l 567 261 l 276 261 l 185 0 l 28 0 l 347 931 l 494 931 l 814 0 m 514 411 l 422 672 l 328 411 l 514 411 z "},"Â":{"ha":840,"x_min":28,"x_max":814,"o":"m 525 974 l 419 1079 l 314 974 l 221 974 l 347 1164 l 492 1164 l 618 974 l 525 974 m 814 0 l 658 0 l 567 261 l 276 261 l 185 0 l 28 0 l 347 931 l 494 931 l 814 0 m 514 411 l 422 672 l 328 411 l 514 411 z "},"Ã":{"ha":840,"x_min":28,"x_max":814,"o":"m 814 0 l 658 0 l 567 261 l 276 261 l 185 0 l 28 0 l 347 931 l 494 931 l 814 0 m 514 411 l 422 672 l 328 411 l 514 411 m 619 1136 q 569 1019 601 1057 q 486 982 536 982 q 463 985 469 982 q 440 992 456 988 l 381 1010 q 359 1014 367 1013 q 343 1015 351 1015 q 310 1004 322 1015 q 289 967 297 993 l 222 967 q 265 1082 232 1046 q 346 1118 297 1118 q 372 1115 358 1117 q 403 1108 386 1113 l 460 1093 q 476 1088 469 1090 q 494 1086 483 1086 q 526 1099 514 1086 q 543 1136 539 1113 l 619 1136 z "},"Ä":{"ha":840,"x_min":28,"x_max":814,"o":"m 376 1067 q 356 1018 376 1039 q 307 997 336 997 q 260 1018 281 997 q 239 1067 239 1039 q 259 1115 239 1094 q 307 1135 279 1135 q 356 1115 336 1135 q 376 1067 376 1096 m 603 1067 q 583 1018 603 1039 q 533 997 563 997 q 486 1018 507 997 q 465 1067 465 1039 q 485 1115 465 1094 q 533 1135 506 1135 q 583 1115 563 1135 q 603 1067 603 1096 m 814 0 l 658 0 l 567 261 l 276 261 l 185 0 l 28 0 l 347 931 l 494 931 l 814 0 m 514 411 l 422 672 l 328 411 l 514 411 z "},"Å":{"ha":840,"x_min":28,"x_max":814,"o":"m 556 1067 l 506 1067 q 481 1126 507 1101 q 419 1151 456 1151 q 358 1127 383 1151 q 332 1067 332 1103 q 358 1006 332 1032 q 419 981 383 981 q 481 1006 456 981 q 506 1067 507 1032 l 556 1067 q 515 971 556 1011 q 419 931 475 931 q 324 971 364 931 q 285 1067 285 1011 q 324 1163 285 1124 q 419 1201 363 1201 q 515 1162 474 1201 q 556 1067 556 1122 m 814 0 l 658 0 l 567 261 l 276 261 l 185 0 l 28 0 l 347 931 l 494 931 l 814 0 m 514 411 l 422 672 l 328 411 l 514 411 z "},"Æ":{"ha":1201,"x_min":39,"x_max":1163,"o":"m 1133 931 l 1133 783 l 732 783 l 732 554 l 1003 554 l 1003 404 l 732 404 l 732 150 l 1163 150 l 1163 0 l 585 0 l 585 765 l 407 411 l 585 411 l 585 261 l 336 261 l 206 0 l 39 0 l 504 931 l 1133 931 z "},"¾":{"ha":1243,"x_min":67,"x_max":1169,"o":"m 1169 151 l 1107 151 l 1107 0 l 1007 0 l 1007 151 l 707 151 l 707 239 l 1007 604 l 1107 604 l 1107 238 l 1169 238 l 1169 151 m 1007 238 l 1007 454 l 828 238 l 1007 238 m 469 544 q 413 399 469 456 q 268 342 357 342 q 149 378 203 342 q 67 488 96 414 l 160 515 q 274 436 194 440 q 349 465 319 436 q 378 539 378 494 q 299 625 376 615 l 271 625 l 271 717 l 299 717 q 356 774 356 717 q 331 830 356 808 q 271 851 306 851 q 185 794 213 851 l 97 818 q 167 914 121 882 q 268 946 213 946 q 395 894 343 946 q 447 768 447 842 q 407 672 447 706 q 469 544 468 631 m 303 0 l 917 947 l 993 947 l 388 0 l 303 0 z "},"Ç":{"ha":771,"x_min":72,"x_max":699,"o":"m 413 132 q 561 229 515 133 l 699 161 q 413 -15 614 -11 q 160 111 249 -15 q 72 465 72 238 q 160 819 72 693 q 413 946 249 946 q 699 769 614 942 l 561 701 q 413 799 515 797 q 271 706 315 799 q 226 465 226 614 q 271 224 226 317 q 413 132 315 132 m 282 -244 l 282 -169 q 361 -188 324 -182 q 426 -194 399 -194 q 461 -184 450 -194 q 472 -151 472 -174 q 458 -126 472 -135 q 408 -118 443 -118 q 391 -118 397 -118 q 379 -118 385 -118 l 379 0 l 440 0 l 440 -44 l 451 -44 q 543 -72 510 -44 q 576 -153 576 -100 q 540 -243 576 -212 q 436 -274 504 -274 q 367 -266 406 -274 q 282 -244 329 -258 z "},"È":{"ha":715,"x_min":69,"x_max":647,"o":"m 382 969 l 232 1160 l 393 1160 l 483 969 l 382 969 m 647 0 l 69 0 l 69 931 l 618 931 l 618 783 l 217 783 l 217 554 l 488 554 l 488 404 l 217 404 l 217 150 l 647 150 l 647 0 z "},"É":{"ha":715,"x_min":69,"x_max":647,"o":"m 232 969 l 322 1160 l 483 1160 l 333 969 l 232 969 m 647 0 l 69 0 l 69 931 l 618 931 l 618 783 l 217 783 l 217 554 l 488 554 l 488 404 l 217 404 l 217 150 l 647 150 l 647 0 z "},"Ê":{"ha":715,"x_min":69,"x_max":647,"o":"m 464 974 l 358 1079 l 253 974 l 160 974 l 286 1164 l 431 1164 l 557 974 l 464 974 m 647 0 l 69 0 l 69 931 l 618 931 l 618 783 l 217 783 l 217 554 l 488 554 l 488 404 l 217 404 l 217 150 l 647 150 l 647 0 z "},"Ë":{"ha":715,"x_min":69,"x_max":647,"o":"m 314 1067 q 294 1018 314 1039 q 244 997 274 997 q 197 1018 218 997 q 176 1067 176 1039 q 197 1115 176 1094 q 244 1135 217 1135 q 294 1115 274 1135 q 314 1067 314 1096 m 540 1067 q 520 1018 540 1039 q 471 997 500 997 q 424 1018 444 997 q 403 1067 403 1039 q 423 1115 403 1094 q 471 1135 443 1135 q 520 1115 500 1135 q 540 1067 540 1096 m 647 0 l 69 0 l 69 931 l 618 931 l 618 783 l 217 783 l 217 554 l 488 554 l 488 404 l 217 404 l 217 150 l 647 150 l 647 0 z "},"Ì":{"ha":382,"x_min":65,"x_max":317,"o":"m 215 969 l 65 1160 l 226 1160 l 317 969 l 215 969 m 265 0 l 115 0 l 115 931 l 265 931 l 265 0 z "},"Í":{"ha":382,"x_min":65,"x_max":317,"o":"m 65 969 l 156 1160 l 317 1160 l 167 969 l 65 969 m 265 0 l 115 0 l 115 931 l 265 931 l 265 0 z "},"Î":{"ha":382,"x_min":-7,"x_max":390,"o":"m 297 974 l 192 1079 l 86 974 l -7 974 l 119 1164 l 264 1164 l 390 974 l 297 974 m 265 0 l 115 0 l 115 931 l 265 931 l 265 0 z "},"Ï":{"ha":382,"x_min":10,"x_max":374,"o":"m 147 1067 q 127 1018 147 1039 q 78 997 107 997 q 31 1018 51 997 q 10 1067 10 1039 q 30 1115 10 1094 q 78 1135 50 1135 q 127 1115 107 1135 q 147 1067 147 1096 m 374 1067 q 353 1018 374 1039 q 304 997 333 997 q 257 1018 278 997 q 236 1067 236 1039 q 256 1115 236 1094 q 304 1135 276 1135 q 353 1115 333 1135 q 374 1067 374 1096 m 265 0 l 115 0 l 115 931 l 265 931 l 265 0 z "},"Ð":{"ha":840,"x_min":54,"x_max":786,"o":"m 786 465 q 685 111 785 222 q 442 0 586 0 l 151 0 l 151 931 l 442 931 q 685 819 586 931 q 786 465 785 708 m 299 465 l 299 147 l 442 147 q 587 236 535 150 q 640 465 639 322 q 588 699 640 618 q 442 783 535 781 l 299 783 l 299 465 m 413 381 l 54 381 l 54 531 l 413 531 l 413 381 z "},"Ñ":{"ha":771,"x_min":69,"x_max":703,"o":"m 585 1136 q 534 1019 567 1057 q 451 982 501 982 q 428 985 435 982 q 406 992 421 988 l 346 1010 q 324 1014 332 1013 q 308 1015 317 1015 q 275 1004 288 1015 q 254 967 263 993 l 188 967 q 230 1082 197 1046 q 311 1118 263 1118 q 338 1115 324 1117 q 368 1108 351 1113 l 425 1093 q 442 1088 435 1090 q 460 1086 449 1086 q 492 1099 479 1086 q 508 1136 504 1113 l 585 1136 m 703 0 l 572 0 l 217 631 l 217 0 l 69 0 l 69 931 l 217 931 l 556 336 l 556 931 l 703 931 l 703 0 z "},"Ò":{"ha":785,"x_min":51,"x_max":732,"o":"m 417 969 l 267 1160 l 428 1160 l 518 969 l 417 969 m 392 -17 q 140 108 228 -17 q 51 465 51 232 q 140 819 51 693 q 392 946 228 946 q 645 819 558 946 q 732 465 732 693 q 645 108 732 232 q 392 -17 558 -17 m 392 799 q 250 706 294 799 q 204 468 206 614 q 248 219 204 304 q 392 136 292 135 q 538 224 497 139 q 581 468 578 308 q 534 708 578 624 q 392 799 490 793 z "},"Ó":{"ha":785,"x_min":51,"x_max":732,"o":"m 392 -17 q 140 108 228 -17 q 51 465 51 232 q 140 819 51 693 q 392 946 228 946 q 645 819 558 946 q 732 465 732 693 q 645 108 732 232 q 392 -17 558 -17 m 392 799 q 250 706 294 799 q 204 468 206 614 q 248 219 204 304 q 392 136 292 135 q 538 224 497 139 q 581 468 578 308 q 534 708 578 624 q 392 799 490 793 m 267 969 l 357 1160 l 518 1160 l 368 969 l 267 969 z "},"Ô":{"ha":785,"x_min":51,"x_max":732,"o":"m 499 974 l 393 1079 l 288 974 l 194 974 l 321 1164 l 465 1164 l 592 974 l 499 974 m 392 -17 q 140 108 228 -17 q 51 465 51 232 q 140 819 51 693 q 392 946 228 946 q 645 819 558 946 q 732 465 732 693 q 645 108 732 232 q 392 -17 558 -17 m 392 799 q 250 706 294 799 q 204 468 206 614 q 248 219 204 304 q 392 136 292 135 q 538 224 497 139 q 581 468 578 308 q 534 708 578 624 q 392 799 490 793 z "},"Õ":{"ha":785,"x_min":51,"x_max":732,"o":"m 392 -17 q 140 108 228 -17 q 51 465 51 232 q 140 819 51 693 q 392 946 228 946 q 645 819 558 946 q 732 465 732 693 q 645 108 732 232 q 392 -17 558 -17 m 392 799 q 250 706 294 799 q 204 468 206 614 q 248 219 204 304 q 392 136 292 135 q 538 224 497 139 q 581 468 578 308 q 534 708 578 624 q 392 799 490 793 m 585 1136 q 534 1019 567 1057 q 451 982 501 982 q 428 985 435 982 q 406 992 421 988 l 346 1010 q 324 1014 332 1013 q 308 1015 317 1015 q 275 1004 288 1015 q 254 967 263 993 l 188 967 q 230 1082 197 1046 q 311 1118 263 1118 q 338 1115 324 1117 q 368 1108 351 1113 l 425 1093 q 442 1088 435 1090 q 460 1086 449 1086 q 492 1099 479 1086 q 508 1136 504 1113 l 585 1136 z "},"Ö":{"ha":785,"x_min":51,"x_max":732,"o":"m 347 1067 q 327 1018 347 1039 q 278 997 307 997 q 231 1018 251 997 q 210 1067 210 1039 q 230 1115 210 1094 q 278 1135 250 1135 q 327 1115 307 1135 q 347 1067 347 1096 m 574 1067 q 553 1018 574 1039 q 504 997 533 997 q 457 1018 478 997 q 436 1067 436 1039 q 456 1115 436 1094 q 504 1135 476 1135 q 553 1115 533 1135 q 574 1067 574 1096 m 392 -17 q 140 108 228 -17 q 51 465 51 232 q 140 819 51 693 q 392 946 228 946 q 645 819 558 946 q 732 465 732 693 q 645 108 732 232 q 392 -17 558 -17 m 392 799 q 250 706 294 799 q 204 468 206 614 q 248 219 204 304 q 392 136 292 135 q 538 224 497 139 q 581 468 578 308 q 534 708 578 624 q 392 799 490 793 z "},"×":{"ha":811,"x_min":110,"x_max":700,"o":"m 110 278 l 322 492 l 110 704 l 193 786 l 406 574 l 618 786 l 699 704 l 488 492 l 700 279 l 618 196 l 406 408 l 192 196 l 110 278 z "},"Ø":{"ha":785,"x_min":17,"x_max":768,"o":"m 768 946 l 138 -17 l 17 -17 l 638 946 l 768 946 m 392 -17 q 140 108 228 -17 q 51 465 51 232 q 140 819 51 693 q 392 946 228 946 q 645 819 558 946 q 732 465 732 693 q 645 108 732 232 q 392 -17 558 -17 m 392 799 q 250 706 294 799 q 204 468 206 614 q 248 219 204 304 q 392 136 292 135 q 538 224 497 139 q 581 468 578 308 q 534 708 578 624 q 392 799 490 793 z "},"Ù":{"ha":771,"x_min":69,"x_max":703,"o":"m 703 333 q 660 140 703 224 q 549 27 625 71 q 386 -17 472 -17 q 224 27 300 -17 q 111 140 147 71 q 69 333 69 224 l 69 931 l 217 931 l 217 333 q 263 188 217 243 q 386 133 310 133 q 509 188 463 133 q 556 333 556 243 l 556 931 l 703 931 l 703 333 m 410 969 l 260 1160 l 421 1160 l 511 969 l 410 969 z "},"Ú":{"ha":771,"x_min":69,"x_max":703,"o":"m 260 969 l 350 1160 l 511 1160 l 361 969 l 260 969 m 703 333 q 660 140 703 224 q 549 27 625 71 q 386 -17 472 -17 q 224 27 300 -17 q 111 140 147 71 q 69 333 69 224 l 69 931 l 217 931 l 217 333 q 263 188 217 243 q 386 133 310 133 q 509 188 463 133 q 556 333 556 243 l 556 931 l 703 931 l 703 333 z "},"Û":{"ha":771,"x_min":69,"x_max":703,"o":"m 492 974 l 386 1079 l 281 974 l 188 974 l 314 1164 l 458 1164 l 585 974 l 492 974 m 703 333 q 660 140 703 224 q 549 27 625 71 q 386 -17 472 -17 q 224 27 300 -17 q 111 140 147 71 q 69 333 69 224 l 69 931 l 217 931 l 217 333 q 263 188 217 243 q 386 133 310 133 q 509 188 463 133 q 556 333 556 243 l 556 931 l 703 931 l 703 333 z "},"Ü":{"ha":771,"x_min":69,"x_max":703,"o":"m 342 1067 q 322 1018 342 1039 q 272 997 301 997 q 225 1018 246 997 q 204 1067 204 1039 q 224 1115 204 1094 q 272 1135 244 1135 q 322 1115 301 1135 q 342 1067 342 1096 m 568 1067 q 548 1018 568 1039 q 499 997 528 997 q 451 1018 472 997 q 431 1067 431 1039 q 451 1115 431 1094 q 499 1135 471 1135 q 548 1115 528 1135 q 568 1067 568 1096 m 703 333 q 660 140 703 224 q 549 27 625 71 q 386 -17 472 -17 q 224 27 300 -17 q 111 140 147 71 q 69 333 69 224 l 69 931 l 217 931 l 217 333 q 263 188 217 243 q 386 133 310 133 q 509 188 463 133 q 556 333 556 243 l 556 931 l 703 931 l 703 333 z "},"Ý":{"ha":868,"x_min":36,"x_max":832,"o":"m 308 969 l 399 1160 l 560 1160 l 410 969 l 308 969 m 832 931 l 510 404 l 510 0 l 363 0 l 363 404 l 36 931 l 213 931 l 435 571 l 660 931 l 832 931 z "},"Þ":{"ha":771,"x_min":79,"x_max":693,"o":"m 546 472 q 514 554 546 524 q 442 586 482 585 l 226 586 l 226 357 l 447 357 q 518 392 489 357 q 546 472 547 426 m 403 207 l 226 207 l 226 0 l 79 0 l 79 931 l 226 931 l 226 733 l 386 733 q 551 703 489 733 q 653 608 614 674 q 693 472 693 543 q 661 339 693 399 q 565 242 629 279 q 403 207 500 206 z "},"ß":{"ha":757,"x_min":83,"x_max":674,"o":"m 674 307 q 584 74 674 164 q 353 -17 494 -17 l 292 -17 l 292 133 l 360 133 q 480 180 433 133 q 526 297 526 226 q 400 435 525 419 l 292 435 l 292 581 l 400 581 q 490 672 490 581 q 451 761 490 726 q 357 796 413 796 q 268 761 300 794 q 231 660 236 728 l 231 -142 l 83 -217 l 83 661 q 158 867 83 789 q 353 946 232 946 q 554 863 471 946 q 638 663 638 781 q 574 511 639 564 q 674 307 671 443 z "},"à":{"ha":660,"x_min":69,"x_max":590,"o":"m 590 0 l 447 0 l 447 22 q 326 -18 393 -17 q 142 45 215 -17 q 69 225 69 107 q 137 395 69 326 q 319 463 204 464 q 439 447 383 463 q 336 558 442 549 q 174 508 246 561 l 100 621 q 332 696 200 692 q 515 634 440 696 q 590 454 589 572 l 590 0 m 435 157 l 435 310 q 313 326 374 326 q 232 294 264 326 q 201 222 200 263 q 234 143 201 181 q 322 106 267 106 q 435 157 382 106 m 354 740 l 204 931 l 365 931 l 456 740 l 354 740 z "},"á":{"ha":660,"x_min":69,"x_max":590,"o":"m 590 0 l 447 0 l 447 22 q 326 -18 393 -17 q 142 45 215 -17 q 69 225 69 107 q 137 395 69 326 q 319 463 204 464 q 439 447 383 463 q 336 558 442 549 q 174 508 246 561 l 100 621 q 332 696 200 692 q 515 634 440 696 q 590 454 589 572 l 590 0 m 435 157 l 435 310 q 313 326 374 326 q 232 294 264 326 q 201 222 200 263 q 234 143 201 181 q 322 106 267 106 q 435 157 382 106 m 204 740 l 294 931 l 456 931 l 306 740 l 204 740 z "},"â":{"ha":660,"x_min":69,"x_max":590,"o":"m 590 0 l 447 0 l 447 22 q 326 -18 393 -17 q 142 45 215 -17 q 69 225 69 107 q 137 395 69 326 q 319 463 204 464 q 439 447 383 463 q 336 558 442 549 q 174 508 246 561 l 100 621 q 332 696 200 692 q 515 634 440 696 q 590 454 589 572 l 590 0 m 435 157 l 435 310 q 313 326 374 326 q 232 294 264 326 q 201 222 200 263 q 234 143 201 181 q 322 106 267 106 q 435 157 382 106 m 435 721 l 329 826 l 224 721 l 131 721 l 257 911 l 401 911 l 528 721 l 435 721 z "},"ã":{"ha":660,"x_min":69,"x_max":590,"o":"m 590 0 l 447 0 l 447 22 q 326 -18 393 -17 q 142 45 215 -17 q 69 225 69 107 q 137 395 69 326 q 319 463 204 464 q 439 447 383 463 q 336 558 442 549 q 174 508 246 561 l 100 621 q 332 696 200 692 q 515 634 440 696 q 590 454 589 572 l 590 0 m 435 157 l 435 310 q 313 326 374 326 q 232 294 264 326 q 201 222 200 263 q 234 143 201 181 q 322 106 267 106 q 435 157 382 106 m 528 931 q 477 814 510 851 q 394 776 444 776 q 371 779 378 776 q 349 786 364 782 l 289 804 q 267 808 275 807 q 251 810 260 810 q 218 799 231 810 q 197 761 206 788 l 131 761 q 173 876 140 840 q 254 913 206 913 q 281 909 267 911 q 311 903 294 907 l 368 888 q 385 883 378 885 q 403 881 392 881 q 435 894 422 881 q 451 931 447 907 l 528 931 z "},"ä":{"ha":660,"x_min":69,"x_max":590,"o":"m 590 0 l 447 0 l 447 22 q 326 -18 393 -17 q 142 45 215 -17 q 69 225 69 107 q 137 395 69 326 q 319 463 204 464 q 439 447 383 463 q 336 558 442 549 q 174 508 246 561 l 100 621 q 332 696 200 692 q 515 634 440 696 q 590 454 589 572 l 590 0 m 435 157 l 435 310 q 313 326 374 326 q 232 294 264 326 q 201 222 200 263 q 234 143 201 181 q 322 106 267 106 q 435 157 382 106 m 286 835 q 266 786 286 807 q 217 765 246 765 q 169 786 190 765 q 149 835 149 807 q 169 883 149 863 q 217 903 189 903 q 266 883 246 903 q 286 835 286 864 m 513 835 q 492 786 513 807 q 443 765 472 765 q 396 786 417 765 q 375 835 375 807 q 395 883 375 863 q 443 903 415 903 q 492 883 472 903 q 513 835 513 864 z "},"å":{"ha":660,"x_min":69,"x_max":590,"o":"m 465 860 l 415 860 q 391 919 417 894 q 329 944 365 944 q 267 920 293 944 q 242 860 242 896 q 267 799 242 825 q 329 774 293 774 q 391 799 365 774 q 415 860 417 825 l 465 860 q 425 764 465 804 q 329 724 385 724 q 234 764 274 724 q 194 860 194 804 q 233 956 194 917 q 329 994 272 994 q 424 955 383 994 q 465 860 465 915 m 590 0 l 447 0 l 447 22 q 326 -18 393 -17 q 142 45 215 -17 q 69 225 69 107 q 137 395 69 326 q 319 463 204 464 q 439 447 383 463 q 336 558 442 549 q 174 508 246 561 l 100 621 q 332 696 200 692 q 515 634 440 696 q 590 454 589 572 l 590 0 m 435 157 l 435 310 q 313 326 374 326 q 232 294 264 326 q 201 222 200 263 q 234 143 201 181 q 322 106 267 106 q 435 157 382 106 z "},"æ":{"ha":1049,"x_min":65,"x_max":983,"o":"m 586 165 q 496 32 558 81 q 322 -18 433 -17 q 138 45 211 -17 q 65 225 65 107 q 133 395 65 326 q 315 463 200 464 q 435 447 379 463 q 332 558 438 549 q 169 508 242 561 l 96 621 q 328 696 196 692 q 510 634 436 696 q 579 458 585 572 q 586 165 564 342 m 431 157 l 431 310 q 308 326 369 326 q 228 294 260 326 q 197 222 196 263 q 230 143 197 181 q 318 106 263 106 q 431 157 378 106 m 983 278 l 583 278 q 618 170 583 213 q 708 129 653 128 q 828 197 786 126 l 960 143 q 711 -17 890 -12 q 508 76 585 -17 q 431 343 431 169 q 505 591 431 486 q 711 696 579 696 q 909 599 835 696 q 983 278 983 501 m 835 414 q 802 515 836 472 q 711 558 768 558 q 614 513 650 560 q 581 414 578 467 l 835 414 z "},"ç":{"ha":646,"x_min":51,"x_max":593,"o":"m 51 343 q 106 575 51 486 q 335 696 178 696 q 593 525 536 696 l 456 469 q 333 557 425 558 q 225 476 258 557 q 201 343 201 419 q 225 210 201 267 q 333 129 258 129 q 456 217 425 128 l 593 161 q 335 -10 536 -10 q 106 111 178 -10 q 51 343 51 200 m 208 -244 l 208 -169 q 288 -188 250 -182 q 353 -194 325 -194 q 388 -184 376 -194 q 399 -151 399 -174 q 384 -126 399 -135 q 335 -118 369 -118 q 317 -118 324 -118 q 306 -118 311 -118 l 306 0 l 367 0 l 367 -44 l 378 -44 q 469 -72 436 -44 q 503 -153 503 -100 q 467 -243 503 -212 q 363 -274 431 -274 q 294 -266 332 -274 q 208 -244 256 -258 z "},"è":{"ha":660,"x_min":54,"x_max":607,"o":"m 607 278 l 207 278 q 242 170 207 213 q 332 129 276 128 q 451 197 410 126 l 583 143 q 335 -17 514 -12 q 131 76 208 -17 q 54 343 54 169 q 128 591 54 486 q 335 696 203 696 q 533 599 458 696 q 607 278 607 501 m 458 414 q 426 515 460 472 q 335 558 392 558 q 238 513 274 560 q 204 414 201 467 l 458 414 m 354 740 l 204 931 l 365 931 l 456 740 l 354 740 z "},"é":{"ha":660,"x_min":54,"x_max":607,"o":"m 607 278 l 207 278 q 242 170 207 213 q 332 129 276 128 q 451 197 410 126 l 583 143 q 335 -17 514 -12 q 131 76 208 -17 q 54 343 54 169 q 128 591 54 486 q 335 696 203 696 q 533 599 458 696 q 607 278 607 501 m 458 414 q 426 515 460 472 q 335 558 392 558 q 238 513 274 560 q 204 414 201 467 l 458 414 m 204 740 l 294 931 l 456 931 l 306 740 l 204 740 z "},"ê":{"ha":660,"x_min":54,"x_max":607,"o":"m 607 278 l 207 278 q 242 170 207 213 q 332 129 276 128 q 451 197 410 126 l 583 143 q 335 -17 514 -12 q 131 76 208 -17 q 54 343 54 169 q 128 591 54 486 q 335 696 203 696 q 533 599 458 696 q 607 278 607 501 m 458 414 q 426 515 460 472 q 335 558 392 558 q 238 513 274 560 q 204 414 201 467 l 458 414 m 435 721 l 329 826 l 224 721 l 131 721 l 257 911 l 401 911 l 528 721 l 435 721 z "},"ë":{"ha":660,"x_min":54,"x_max":607,"o":"m 607 278 l 207 278 q 242 170 207 213 q 332 129 276 128 q 451 197 410 126 l 583 143 q 335 -17 514 -12 q 131 76 208 -17 q 54 343 54 169 q 128 591 54 486 q 335 696 203 696 q 533 599 458 696 q 607 278 607 501 m 458 414 q 426 515 460 472 q 335 558 392 558 q 238 513 274 560 q 204 414 201 467 l 458 414 m 286 835 q 266 786 286 807 q 217 765 246 765 q 169 786 190 765 q 149 835 149 807 q 169 883 149 863 q 217 903 189 903 q 266 883 246 903 q 286 835 286 864 m 513 835 q 492 786 513 807 q 443 765 472 765 q 396 786 417 765 q 375 835 375 807 q 395 883 375 863 q 443 903 415 903 q 492 883 472 903 q 513 835 513 864 z "},"ì":{"ha":340,"x_min":44,"x_max":296,"o":"m 194 740 l 44 931 l 206 931 l 296 740 l 194 740 m 246 0 l 94 0 l 94 679 l 246 679 l 246 0 z "},"í":{"ha":340,"x_min":44,"x_max":296,"o":"m 44 740 l 135 931 l 296 931 l 146 740 l 44 740 m 246 0 l 94 0 l 94 679 l 246 679 l 246 0 z "},"î":{"ha":340,"x_min":-28,"x_max":369,"o":"m 276 721 l 171 826 l 65 721 l -28 721 l 99 911 l 243 911 l 369 721 l 276 721 m 246 0 l 94 0 l 94 679 l 246 679 l 246 0 z "},"ï":{"ha":340,"x_min":-11,"x_max":353,"o":"m 126 835 q 106 786 126 807 q 57 765 86 765 q 10 786 31 765 q -11 835 -11 807 q 9 883 -11 863 q 57 903 29 903 q 106 883 86 903 q 126 835 126 864 m 353 835 q 333 786 353 807 q 283 765 313 765 q 236 786 257 765 q 215 835 215 807 q 235 883 215 863 q 283 903 256 903 q 333 883 313 903 q 353 835 353 864 m 246 0 l 94 0 l 94 679 l 246 679 l 246 0 z "},"ð":{"ha":660,"x_min":47,"x_max":614,"o":"m 614 311 q 558 104 613 183 q 331 -17 481 -17 q 103 104 175 -17 q 47 311 49 183 q 103 524 49 443 q 301 631 176 629 q 346 622 325 632 q 133 821 286 728 l 197 946 q 500 683 389 854 q 614 311 611 511 m 331 135 q 439 200 404 135 q 463 307 463 247 q 439 415 463 368 q 331 481 406 481 q 222 415 256 481 q 199 307 199 368 q 222 200 199 247 q 331 135 261 135 m 79 715 l 497 922 l 547 824 l 129 617 l 79 715 z "},"ñ":{"ha":660,"x_min":58,"x_max":600,"o":"m 528 931 q 477 814 510 851 q 394 776 444 776 q 371 779 378 776 q 349 786 364 782 l 289 804 q 267 808 275 807 q 251 810 260 810 q 218 799 231 810 q 197 761 206 788 l 131 761 q 173 876 140 840 q 254 913 206 913 q 281 909 267 911 q 311 903 294 907 l 368 888 q 385 883 378 885 q 403 881 392 881 q 435 894 422 881 q 451 931 447 907 l 528 931 m 58 688 l 203 688 l 203 644 q 365 696 264 696 q 542 615 483 696 q 600 428 600 535 l 600 0 l 457 0 l 457 425 q 422 520 460 478 q 328 560 385 563 q 237 525 268 560 q 206 425 206 490 l 206 0 l 58 0 l 58 688 z "},"ò":{"ha":660,"x_min":47,"x_max":614,"o":"m 614 340 q 558 111 613 200 q 331 -17 486 -10 q 103 111 175 -10 q 47 340 49 200 q 103 575 49 486 q 331 696 176 692 q 558 575 485 692 q 614 340 613 486 m 354 740 l 204 931 l 365 931 l 456 740 l 354 740 m 329 131 q 447 210 410 131 q 472 339 472 265 q 447 472 472 417 q 329 551 411 551 q 214 472 250 551 q 189 339 189 417 q 214 210 189 265 q 329 131 256 131 z "},"ó":{"ha":660,"x_min":47,"x_max":614,"o":"m 614 340 q 558 575 613 486 q 331 696 485 692 q 103 575 176 692 q 47 340 49 486 q 103 111 49 200 q 331 -17 175 -10 q 558 111 486 -10 q 614 340 613 200 m 204 740 l 294 931 l 456 931 l 306 740 l 204 740 m 329 131 q 214 210 256 131 q 189 339 189 265 q 214 472 189 417 q 329 551 250 551 q 447 472 411 551 q 472 339 472 417 q 447 210 472 265 q 329 131 410 131 z "},"ô":{"ha":660,"x_min":47,"x_max":614,"o":"m 614 340 q 558 111 613 200 q 331 -17 486 -10 q 103 111 175 -10 q 47 340 49 200 q 103 575 49 486 q 331 696 176 692 q 558 575 485 692 q 614 340 613 486 m 435 721 l 329 826 l 224 721 l 131 721 l 257 911 l 401 911 l 528 721 l 435 721 m 329 131 q 447 210 410 131 q 472 339 472 265 q 447 472 472 417 q 329 551 411 551 q 214 472 250 551 q 189 339 189 417 q 214 210 189 265 q 329 131 256 131 z "},"õ":{"ha":660,"x_min":47,"x_max":614,"o":"m 614 340 q 558 575 613 486 q 331 696 485 692 q 103 575 176 692 q 47 340 49 486 q 103 111 49 200 q 331 -17 175 -10 q 558 111 486 -10 q 614 340 613 200 m 528 931 q 477 814 510 851 q 394 776 444 776 q 371 779 378 776 q 349 786 364 782 l 289 804 q 267 808 275 807 q 251 810 260 810 q 218 799 231 810 q 197 761 206 788 l 131 761 q 173 876 140 840 q 254 913 206 913 q 281 909 267 911 q 311 903 294 907 l 368 888 q 385 883 378 885 q 403 881 392 881 q 435 894 422 881 q 451 931 447 907 l 528 931 m 329 131 q 214 210 256 131 q 189 339 189 265 q 214 472 189 417 q 329 551 250 551 q 447 472 411 551 q 472 339 472 417 q 447 210 472 265 q 329 131 410 131 z "},"ö":{"ha":660,"x_min":47,"x_max":614,"o":"m 614 340 q 558 575 613 486 q 331 696 485 692 q 103 575 176 692 q 47 340 49 486 q 103 111 49 200 q 331 -17 175 -10 q 558 111 486 -10 q 614 340 613 200 m 286 835 q 266 786 286 807 q 217 765 246 765 q 169 786 190 765 q 149 835 149 807 q 169 883 149 863 q 217 903 189 903 q 266 883 246 903 q 286 835 286 864 m 513 835 q 492 786 513 807 q 443 765 472 765 q 396 786 417 765 q 375 835 375 807 q 395 883 375 863 q 443 903 415 903 q 492 883 472 903 q 513 835 513 864 m 329 131 q 214 210 256 131 q 189 339 189 265 q 214 472 189 417 q 329 551 250 551 q 447 472 411 551 q 472 339 472 417 q 447 210 472 265 q 329 131 410 131 z "},"÷":{"ha":799,"x_min":81,"x_max":719,"o":"m 400 394 q 455 371 431 394 q 479 314 479 347 q 455 257 479 281 q 400 233 431 233 q 342 257 365 233 q 318 314 318 281 q 342 371 318 347 q 400 394 365 394 m 81 576 l 719 576 l 719 471 l 81 471 l 81 576 m 400 811 q 455 788 431 811 q 479 732 479 765 q 455 675 479 699 q 400 651 431 651 q 342 675 365 651 q 318 732 318 699 q 342 788 318 765 q 400 811 365 811 z "},"ø":{"ha":660,"x_min":22,"x_max":638,"o":"m 156 -17 l 22 -17 l 506 696 l 638 696 l 156 -17 m 613 340 q 557 111 611 200 q 329 -17 485 -10 q 101 111 174 -10 q 46 340 47 200 q 101 575 47 486 q 329 696 175 692 q 557 575 483 692 q 613 340 611 486 m 329 131 q 447 210 410 131 q 472 339 472 265 q 447 472 472 417 q 329 551 411 551 q 214 472 250 551 q 189 339 189 417 q 214 210 189 265 q 329 131 256 131 z "},"ù":{"ha":660,"x_min":58,"x_max":600,"o":"m 600 0 l 456 0 l 456 35 q 293 -17 394 -17 q 117 64 175 -17 q 58 251 58 144 l 58 679 l 201 679 l 201 254 q 236 159 199 201 q 331 119 274 117 q 422 154 390 119 q 453 254 453 189 l 453 679 l 600 679 l 600 0 m 354 740 l 204 931 l 365 931 l 456 740 l 354 740 z "},"ú":{"ha":660,"x_min":58,"x_max":600,"o":"m 204 740 l 294 931 l 456 931 l 306 740 l 204 740 m 600 0 l 456 0 l 456 35 q 293 -17 394 -17 q 117 64 175 -17 q 58 251 58 144 l 58 679 l 201 679 l 201 254 q 236 159 199 201 q 331 119 274 117 q 422 154 390 119 q 453 254 453 189 l 453 679 l 600 679 l 600 0 z "},"û":{"ha":660,"x_min":58,"x_max":600,"o":"m 435 721 l 329 826 l 224 721 l 131 721 l 257 911 l 401 911 l 528 721 l 435 721 m 600 0 l 456 0 l 456 35 q 293 -17 394 -17 q 117 64 175 -17 q 58 251 58 144 l 58 679 l 201 679 l 201 254 q 236 159 199 201 q 331 119 274 117 q 422 154 390 119 q 453 254 453 189 l 453 679 l 600 679 l 600 0 z "},"ü":{"ha":660,"x_min":58,"x_max":600,"o":"m 286 835 q 266 786 286 807 q 217 765 246 765 q 169 786 190 765 q 149 835 149 807 q 169 883 149 863 q 217 903 189 903 q 266 883 246 903 q 286 835 286 864 m 513 835 q 492 786 513 807 q 443 765 472 765 q 396 786 417 765 q 375 835 375 807 q 395 883 375 863 q 443 903 415 903 q 492 883 472 903 q 513 835 513 864 m 600 0 l 456 0 l 456 35 q 293 -17 394 -17 q 117 64 175 -17 q 58 251 58 144 l 58 679 l 201 679 l 201 254 q 236 159 199 201 q 331 119 274 117 q 422 154 390 119 q 453 254 453 189 l 453 679 l 600 679 l 600 0 z "},"ý":{"ha":729,"x_min":19,"x_max":711,"o":"m 239 740 l 329 931 l 490 931 l 340 740 l 239 740 m 711 679 l 308 -335 l 144 -335 l 281 0 l 19 679 l 179 679 l 365 203 l 544 679 l 711 679 z "},"þ":{"ha":701,"x_min":72,"x_max":628,"o":"m 350 -17 q 219 24 278 -17 l 219 -262 l 72 -336 l 72 872 l 219 946 l 219 647 q 347 696 264 694 q 628 329 628 690 q 350 -17 628 -17 m 483 331 q 347 553 483 544 q 222 485 263 553 l 222 179 q 351 114 274 113 q 483 331 482 115 z "},"ÿ":{"ha":729,"x_min":19,"x_max":711,"o":"m 319 835 q 299 786 319 807 q 250 765 279 765 q 203 786 224 765 q 182 835 182 807 q 202 883 182 863 q 250 903 222 903 q 299 883 279 903 q 319 835 319 864 m 546 835 q 526 786 546 807 q 476 765 506 765 q 429 786 450 765 q 408 835 408 807 q 428 883 408 863 q 476 903 449 903 q 526 883 506 903 q 546 835 546 864 m 711 679 l 308 -335 l 144 -335 l 281 0 l 19 679 l 179 679 l 365 203 l 544 679 l 711 679 z "}}}
